<?xml version="1.0" standalone="no"?><!DOCTYPE svg PUBLIC "-//W3C//DTD SVG 1.1//EN" "http://www.w3.org/Graphics/SVG/1.1/DTD/svg11.dtd"><svg t="1568384905194" class="icon" viewBox="0 0 1316 1024" version="1.1" xmlns="http://www.w3.org/2000/svg" p-id="1851" width="41.125" height="32" xmlns:xlink="http://www.w3.org/1999/xlink"><defs><style type="text/css"></style></defs><path d="M1278.976 132.534857a130.56 130.56 0 0 1-36.790857 76.434286l-492.324572 495.616a129.243429 129.243429 0 0 1-183.149714 0l-492.251428-495.616a129.389714 129.389714 0 0 1-36.864-76.434286 133.12 133.12 0 0 0-1.024 16.091429v678.180571c0 71.68 58.294857 130.413714 129.462857 130.413714h984.502857c71.168 0 129.462857-58.733714 129.462857-130.413714V148.699429a133.12 133.12 0 0 0-1.024-16.164572z m-529.115429 477.110857l516.169143-519.606857a129.682286 129.682286 0 0 0-115.565714-71.753143H166.107429c-50.249143 0-94.208 29.257143-115.565715 71.68l516.169143 519.68a129.243429 129.243429 0 0 0 183.149714 0z" fill="#626262" p-id="1852"></path></svg>