<?xml version="1.0" standalone="no"?><!DOCTYPE svg PUBLIC "-//W3C//DTD SVG 1.1//EN" "http://www.w3.org/Graphics/SVG/1.1/DTD/svg11.dtd"><svg t="1568384668046" class="icon" viewBox="0 0 1052 1024" version="1.1" xmlns="http://www.w3.org/2000/svg" p-id="1678" width="65.75" height="64" xmlns:xlink="http://www.w3.org/1999/xlink"><defs><style type="text/css"></style></defs><path d="M0 23.36z m759.392 501.76c-10.496-2.112-17.28-5.248-20.416-9.408s-3.648-8.032-1.568-11.52l3.136-5.216c0.704-0.704 1.408-1.728 2.112-3.136s2.112-4.384 4.192-8.928c2.08-4.544 3.648-9.088 4.736-13.6s1.952-10.112 2.624-16.768c0.672-6.624 0.48-12.928-0.544-18.88s-3.136-12.416-6.304-19.36a64.864 64.864 0 0 0-13.12-18.88c-9.792-9.792-22.528-16.064-38.24-18.88s-31.424-2.976-47.136-0.544c-15.712 2.432-30.56 5.568-44.512 9.408s-25.472 7.52-34.56 11.008l-13.6 6.304c-7.008 2.112-12.768 3.488-17.28 4.192s-8.032 0.512-10.496-0.544c-2.464-1.056-4.384-2.112-5.76-3.136s-1.92-3.488-1.568-7.328c0.352-3.84 0.672-7.168 1.024-9.952s1.216-7.168 2.624-13.12c1.376-5.952 2.432-10.656 3.136-14.144 0-8.384-0.512-16.224-1.568-23.552s-3.328-15.52-6.816-24.608c-3.488-9.088-8.544-16.416-15.2-21.984s-15.008-10.112-25.152-13.6c-10.112-3.488-23.232-4.544-39.296-3.136s-34.208 5.568-54.464 12.576c-24.448 8.384-49.248 20.768-74.368 37.184s-46.976 33.504-65.472 51.328c-18.496 17.824-35.456 35.104-50.816 51.84s-27.264 30.368-35.616 40.864l-11.52 16.768c-23.04 30.048-40.16 60.064-51.328 90.112s-16.416 52.736-15.712 68.064v21.984c4.192 33.504 14.496 63.552 30.912 90.112s35.968 48.032 58.656 64.416 49.408 30.368 80.128 41.888 60.224 19.904 88.512 25.152 58.144 8.896 89.568 11.008c51.68 4.192 105.28 0.192 160.8-12.032s107.168-33.344 155.04-63.392c47.84-30.048 81.536-65.984 101.088-107.904 11.872-24.448 17.984-47.488 18.336-69.152s-3.296-39.296-11.008-52.896c-7.68-13.6-17.632-25.664-29.856-36.128s-23.744-18.176-34.56-23.072a117.76 117.76 0 0 0-28.8-9.408v0.096z m-319.456 325.76c-75.424 3.488-139.488-11.168-192.192-44s-79.072-74.368-79.072-124.64c0-49.6 26.176-92.352 78.56-128.32s116.608-55.68 192.736-59.2c76.096-3.52 140.352 9.056 192.736 37.696s78.56 67.744 78.56 117.312c0 50.272-26.72 95.488-80.128 135.648s-117.152 61.984-191.168 65.472l-0.032 0.032z m-30.368-290.176c-20.256 2.112-38.4 6.816-54.464 14.144s-28.64 15.712-37.696 25.152c-9.056 9.44-16.768 19.552-23.072 30.368s-10.656 21.472-13.12 31.936-4 20.064-4.736 28.8a250.912 250.912 0 0 0-1.024 20.416l1.024 8.384v4.192c0 2.112 0.704 6.304 2.112 12.576s3.328 12.032 5.76 17.312 6.464 11.008 12.032 17.312c5.6 6.272 12.224 11.52 19.904 15.712 46.112 22.336 89.056 29.152 128.832 20.416s71.904-28.8 96.352-60.224c9.792-11.872 16.256-26.528 19.36-44s2.432-35.104-2.112-52.896c-4.544-17.792-12.384-34.016-23.552-48.704s-27.744-26.048-49.728-34.048c-21.984-8.032-47.296-10.304-75.968-6.816l0.032 0.032z m-37.728 197.984a48.224 48.224 0 0 1-22.528-1.568c-3.168-1.056-6.304-2.304-9.408-3.648s-5.728-3.296-7.84-5.76c-2.112-2.496-4.032-4.928-5.76-7.328a32.128 32.128 0 0 1-5.76-18.336c0-7.68 2.112-15.2 6.304-22.528s9.952-13.632 17.28-18.88c7.328-5.248 15.52-8.224 24.608-8.928 6.272-0.704 12.384-0.512 18.336 0.544s11.008 2.784 15.2 5.216 7.84 5.216 11.008 8.384c3.136 3.136 5.408 6.816 6.816 11.008s2.08 8.704 2.112 13.6c0 7.68-2.272 15.008-6.816 21.984s-10.656 12.896-18.336 17.792-16.064 7.68-25.152 8.384l-0.032 0.064z m89.024-75.392c-4.896 3.488-9.952 5.056-15.2 4.736s-8.896-2.592-11.008-6.816l-2.112-4.192a9.28 9.28 0 0 1-1.024-4.192v-4.192a11.84 11.84 0 0 1 1.024-5.216l2.112-4.192a6.624 6.624 0 0 1 3.136-3.136l3.136-4.192c5.6-4.192 11.008-5.952 16.224-5.216s8.896 3.52 11.008 8.384c2.112 2.784 2.976 5.92 2.624 9.408s-1.408 6.816-3.136 9.952a39.872 39.872 0 0 1-6.816 8.928v-0.032z m371.872-218.944c4.192 0 8.032-1.056 11.52-3.136s6.272-4.704 8.384-7.84a27.136 27.136 0 0 0 4.192-9.952c0.704-0.704 1.024-1.728 1.024-3.136 8.384-79.616-19.552-125.024-83.808-136.192a147.36 147.36 0 0 0-52.384-1.024c-4.896 0-9.088 1.216-12.576 3.648s-6.464 5.568-8.928 9.408a21.6 21.6 0 0 0-3.648 12.032c0 7.008 2.432 12.928 7.328 17.792s10.816 7.328 17.792 7.328c54.464-12.576 83.808 4.896 88 52.384 1.408 11.872 0.704 23.04-2.112 33.504 0 7.008 2.432 12.928 7.328 17.792s10.816 7.328 17.792 7.328l0.032 0.032z m-17.792-295.392c-30.72-7.008-71.936-5.6-123.616 4.192-0.704 0-1.408 0.352-2.112 1.024l-1.024 2.112-1.024 1.024c-7.68 2.112-13.984 6.464-18.88 13.12s-7.328 13.792-7.328 21.472c0 10.464 3.488 19.2 10.496 26.176s15.36 10.464 25.152 10.496h3.136c0.704 0 2.272-0.352 4.736-1.024s5.088-1.216 7.84-1.568c2.784-0.352 5.728-1.056 8.928-2.112s5.952-2.112 8.384-3.136c2.4-1.056 7.136-1.568 14.144-1.568s15.584 0.512 25.664 1.568c10.112 1.056 21.28 3.68 33.504 7.84s24.48 9.408 36.672 15.712c12.192 6.304 24.416 15.04 36.672 26.176s22.88 24.064 31.936 38.752c18.176 41.216 21.664 81.024 10.496 119.424 0 0.704-0.192 1.408-0.544 2.112s-0.896 2.464-1.568 5.216c-0.704 2.784-1.408 5.376-2.112 7.84s-1.408 5.6-2.112 9.408a55.488 55.488 0 0 0-1.024 9.952c0 6.272 1.728 11.52 5.216 15.712s7.84 7.168 13.12 8.928 11.36 2.624 18.336 2.624c19.552 0 31.072-11.872 34.56-35.616 8.384-27.232 13.088-53.248 14.144-78.016s-0.704-46.592-5.216-65.472-11.328-36.48-20.416-52.896c-9.056-16.416-19.552-30.368-31.456-41.888s-25.152-22.016-39.808-31.456c-14.656-9.44-28.8-16.928-42.432-22.528s-27.776-10.112-42.432-13.6h0.032z" fill="#626262" p-id="1679"></path></svg>